<?xml version="1.0" encoding="iso-8859-1"?>
<!-- Generator: Adobe Illustrator 16.0.0, SVG Export Plug-In . SVG Version: 6.00 Build 0)  -->
<!DOCTYPE svg PUBLIC "-//W3C//DTD SVG 1.1//EN" "http://www.w3.org/Graphics/SVG/1.1/DTD/svg11.dtd">
<svg version="1.1" id="Capa_1" xmlns="http://www.w3.org/2000/svg" xmlns:xlink="http://www.w3.org/1999/xlink" x="0px" y="0px"
	 width="16.882px" height="16.882px" viewBox="0 0 16.882 16.882" style="enable-background:new 0 0 16.882 16.882;"
	 xml:space="preserve">
<g>
	<path d="M4.928,11.039c-1.193,0-3.631,0.014-4.922,0.023V1.727c0-0.954,0.772-1.725,1.726-1.727h11.887c0,1.232,0,3.484,0,5.166
		c0,2.438,0,4.93,0,5.134c0,0.033-0.006,0.142-0.034,0.253c-0.043,0.178-0.126,0.354-0.262,0.477
		c-0.14,0.119-0.356,0.253-0.909,0.261c-0.328-0.005-0.493-0.076-0.618-0.156c-0.181-0.118-0.312-0.34-0.388-0.575
		c-0.036-0.115-0.059-0.225-0.068-0.297c-0.007-0.035-0.008-0.064-0.01-0.08V10.18c0-0.094,0-0.533,0-2.541
		c0-0.48-0.041-0.924-0.146-1.343c-0.152-0.618-0.496-1.207-1.041-1.578C9.598,4.343,8.948,4.213,8.256,4.213
		c-1.144,0-1.982,0-3.925,0c-0.821,0-1.549,0.318-2.082,0.794C1.72,5.481,1.34,6.134,1.333,6.9C1.332,7.243,1.421,7.605,1.606,7.926
		c0.279,0.486,0.75,0.853,1.325,1.075C3.509,9.23,4.204,9.342,5.052,9.343C5.179,9.344,5.26,9.369,5.328,9.4
		C5.427,9.451,5.515,9.533,5.59,9.673c0.074,0.14,0.121,0.329,0.121,0.519c0.001,0.256-0.086,0.488-0.2,0.619
		C5.39,10.941,5.271,11.034,4.928,11.039z M15.458,0.03c0,1.242,0,3.47,0,5.138c0,2.438,0,4.93,0,5.135
		c-0.001,0.252-0.034,0.657-0.231,1.137c-0.192,0.473-0.586,1.022-1.248,1.354c-0.436,0.223-0.965,0.341-1.567,0.339
		c-0.005,0-0.011,0-0.017,0c-0.637,0-1.201-0.176-1.631-0.469c-0.436-0.293-0.72-0.679-0.902-1.029
		c-0.359-0.714-0.37-1.323-0.377-1.396l-0.001-0.018v-0.014c0,0,0,0,0-2.569c0.001-0.421-0.043-0.745-0.111-0.961
		C9.306,6.459,9.23,6.354,9.152,6.281c-0.054-0.05-0.119-0.092-0.226-0.132C8.785,6.095,8.564,6.054,8.254,6.054
		c-1.144,0-1.982,0-3.925,0c-0.33-0.001-0.64,0.135-0.857,0.328C3.251,6.574,3.166,6.807,3.173,6.9
		C3.174,6.947,3.18,6.971,3.201,7.007c0.021,0.038,0.065,0.097,0.18,0.17C3.606,7.325,4.14,7.506,5.05,7.502
		c0.389,0,0.764,0.086,1.09,0.248c0.326,0.16,0.598,0.39,0.807,0.651c0.418,0.525,0.604,1.162,0.606,1.792
		c-0.001,0.631-0.19,1.281-0.638,1.813c-0.443,0.534-1.176,0.888-1.991,0.878c-0.825,0-2.265,0.008-3.497,0.018
		c-0.537,0.001-1.035,0.005-1.425,0.008v2.247c0,0.954,0.772,1.725,1.726,1.725h13.426c0.953,0,1.726-0.771,1.726-1.725V1.73
		C16.882,0.879,16.268,0.177,15.458,0.03z"/>
</g>
<g>
</g>
<g>
</g>
<g>
</g>
<g>
</g>
<g>
</g>
<g>
</g>
<g>
</g>
<g>
</g>
<g>
</g>
<g>
</g>
<g>
</g>
<g>
</g>
<g>
</g>
<g>
</g>
<g>
</g>
</svg>
